<svg xmlns="http://www.w3.org/2000/svg" height="800" width="1200" viewBox="-228.58935 -97.4545 1981.1077 584.727"><path d="M444.467 1.694c-88.82.636-161.473 99.352-161.473 185.456 0 90.61 53.258 201.14 161.473 200.781 108.215-.358 164.382-119.353 164.382-200.78 0-89.944-75.562-186.092-164.382-185.457zm0 3.378c74.339 0 94.395 82.102 94.395 182.078 0 131.917-24.193 196.999-94.395 196.875-70.202-.124-93.04-53.39-93.04-196.875 0-89.881 18.7-182.078 93.04-182.078zm193.711 184.513C637.78 91.612 716.193 4.827 782.57.52c23.976-1.698 54.796 9.281 72.789 17.103 13.065 5.68 39.736-2.542 44.472-17.624h2.583v133.457h-2.583c0-5.689-24.715-129.58-117.261-129.58-68.358 0-74.961 120.197-74.961 185.708 0 65.51 1.99 195.2 81.761 195.2 38.643 0 67.247-16.907 74.662-51.11V229.677h-32.436v-4.43h125.727v4.43h-31.01v152.044h-2.525s-5.041-21.938-30.623-21.864c-32.696.093-63.532 28.5-101.12 28.154-99.405-.915-153.468-100.453-153.867-198.426zM39.147 14.84H0v-4.4h137.136v4.4h-34.404l97.987 266.102c30.64-94.334 54.378-164.065 86.321-266.102h-34.03v-4.4h72.409v4.4h-32.974L173.352 386.104zm937.376 280.369l-.62-280.796H938.64v-4.206h137.283v4.206h-37.241l.827 307.877c8.244 35.255 22.902 62.005 72.979 62.404 50.076.398 84.12-29.624 96.772-70.652V14.412h-42.628v-4.081h348.894l.726 134.793h-3.354c-6.47-87.031-40.052-119.923-98.782-129.518-20.21-3.302-41.41-.854-68.213-1.063v172.032c23.34 1.803 48.2.328 64.954-14.062 15.235-13.085 19.542-43.318 20.662-55.6h2.95V266.7h-3.193c-.922 0-2.148-37.589-20.419-55.422-18.39-17.95-41.81-22.363-64.954-18.087V376.96c32.691 0 58.75 2.769 81.38-3.435 68.79-18.86 93.007-76.895 92.821-135.101h3.825V381.31h-273.663v-4.35h30.943V14.413h-66.855v299.629c-7.577 28.669-35.272 76.098-106.247 75.774-65.991-.301-131.442-30.052-131.584-94.607z"/></svg>